<svg width="10" height="5" viewBox="0 0 10 5" fill="none" xmlns="http://www.w3.org/2000/svg">
<path d="M0.623911 0C0.789804 0.000146042 0.948849 0.0661647 1.06608 0.183542L4.26638 3.38384C4.36322 3.48071 4.4782 3.55755 4.60474 3.60997C4.73128 3.6624 4.86691 3.68938 5.00388 3.68938C5.14086 3.68938 5.27649 3.6624 5.40303 3.60997C5.52957 3.55755 5.64455 3.48071 5.74139 3.38384L8.9396 0.187713C9.05761 0.0737348 9.21567 0.0106668 9.37973 0.0120924C9.54379 0.013518 9.70072 0.0793234 9.81673 0.195335C9.93275 0.311347 9.99855 0.468283 9.99998 0.632342C10.0014 0.796401 9.93833 0.954457 9.82436 1.07247L6.62864 4.2686C6.19805 4.69835 5.61454 4.93971 5.00618 4.93971C4.39782 4.93971 3.81431 4.69835 3.38371 4.2686L0.183411 1.0683C0.0959711 0.980914 0.036375 0.869588 0.0121412 0.748369C-0.0120926 0.62715 0.000123024 0.501468 0.0472469 0.387185C0.0943699 0.272901 0.17429 0.175137 0.27692 0.106228C0.379551 0.0373198 0.500294 0.000355527 0.623911 0Z" fill="#F7D005"/>
</svg>
